<?xml version="1.0" encoding="utf-8"?>
<!-- Generator: Adobe Illustrator 22.1.0, SVG Export Plug-In . SVG Version: 6.00 Build 0)  -->
<svg version="1.1" id="Calque_1" xmlns="http://www.w3.org/2000/svg" xmlns:xlink="http://www.w3.org/1999/xlink" x="0px" y="0px"
	 viewBox="0 0 106 104" style="enable-background:new 0 0 106 104;" xml:space="preserve">
<style type="text/css">
	.st0{fill:#FF8433;}
</style>
<path class="st0" d="M105,36L105,36l-0.4-0.3l-40.1-35c-0.6-0.6-1.5-0.8-2.3-0.5L19,12c-0.8,0.2-1.5,0.8-1.7,1.6l-17,50.9
	c0,0.1-0.1,0.2-0.1,0.3c0,0,0,0,0,0.1c0,0,0,0,0,0.1s0,0.1,0,0.2c0,0.2,0,0.4,0,0.6s0,0.3,0.1,0.4v0.1c0.1,0.2,0.2,0.4,0.3,0.5
	C0.7,67,0.9,67.2,1,67.3l40.8,35.9c0.5,0.4,1,0.6,1.6,0.6c0.3,0,0.5,0,0.7-0.1l42.6-13.2c0.8-0.2,1.4-0.8,1.6-1.6l17.3-50.3
	C106,37.7,105.8,36.6,105,36z M87.5,64.5L77,23.7l23.1,15L87.5,64.5z M37.6,60.9l43.3,11.8L45.1,97.1L37.6,60.9z M83.3,68.2L39,56.2
	L71.7,23L83.3,68.2z M61.8,5.5l6.4,9.7l-33.4-2.3L61.8,5.5z M67.4,20.2L35.3,52.7L23.4,17.1L67.4,20.2z M19.8,22L31,55.7L6.5,61.9
	L19.8,22z M7.9,66.7l24.5-6.2l7.1,34L7.9,66.7z M58.5,94L84,76.6l-0.4,9.7L58.5,94z"/>
</svg>
