<?xml version="1.0" encoding="utf-8"?>
<!-- Generator: Adobe Illustrator 22.1.0, SVG Export Plug-In . SVG Version: 6.00 Build 0)  -->
<svg version="1.1" id="Calque_1" xmlns="http://www.w3.org/2000/svg" xmlns:xlink="http://www.w3.org/1999/xlink" x="0px" y="0px"
	 viewBox="0 0 280 139" style="enable-background:new 0 0 280 139;" xml:space="preserve">
<style type="text/css">
	.st0{fill:#FF8433;}
	.st1{fill:#FFF8F3;}
</style>
<path id="DICE" class="st0" d="M154.6,57.2v2.2h1.1l0.7-2.2L154.6,57.2z M154.6,57.2v2.2h1.1l0.7-2.2L154.6,57.2z M159.6,97.8h-9.8
	l7.6,6.7h7.4c2.2,0,4,1.8,4,4v3.4c0,0.7-0.2,1.4-0.6,2.1l7.7,6.8v-8.7L159.6,97.8z M154.6,57.2v2.2h1.1l0.7-2.2L154.6,57.2z
	 M278.6,48.4L278.6,48.4L224.9,1.6c-0.8-0.7-1.9-1-3-0.7l-57.3,15.7c-1,0.3-1.9,1.1-2.2,2.1l-6.9,20.6h6.8l3.2-9.6l3.2,9.6l4.4,13.2
	l7.4,22L159.1,80h10.1c1.9,0,3.5,1.3,3.9,3.1l9.2-2.3l5.4,25.9l0.5,2.4l3.6,17.1l0,0l-3.6-3.1v3.1c0,1.5-0.9,2.9-2.2,3.6l8.8,7.8
	c0.6,0.5,1.4,0.8,2.1,0.8c0.3,0,0.7,0,1-0.1l30.5-9.4c-0.6-0.7-0.9-1.6-0.9-2.6v-3.9l-10.9,3.4l0,0l10.9-7.4v-7.9l-9.3,6.4
	l-3.9,10.9c-0.6,1.6-2.1,2.7-3.8,2.7h-5.4c-1.5,0-2.9-0.9-3.6-2.2l-2.4,1.7l-10.1-48.2l57.7,15.7l-11,7.5h6.5c1.2,0,2.2,0.5,3,1.4
	l5.6-3.8l-0.6,13l-4.8,1.5v2.2c0,0.4-0.1,0.9-0.2,1.3c0.6,0.7,1,1.6,0.9,2.6v0.5l8.2-2.5c1-0.3,1.8-1,2.1-2l23-66.8
	C279.9,50.6,279.5,49.3,278.6,48.4L278.6,48.4z M221.3,8l8.6,13L185,17.8L221.3,8z M186.1,70.6l-15.9-47.3l58.6,4.1L186.1,70.6z
	 M190.8,75.1L234.5,31l15.4,60.1L190.8,75.1z M255.3,86.4L241.4,32l30.8,20L255.3,86.4z M154.6,59.4h1.1l0.7-2.2h-1.8L154.6,59.4z
	 M154.6,57.2v2.2h1.1l0.7-2.2L154.6,57.2z M154.6,57.2v2.2h1.1l0.7-2.2L154.6,57.2z"/>
<g id="ROLE">
	<path class="st1" d="M26.1,93.9L15.6,74.8h-3v19.1H0.4V43.3H21c3.5-0.1,7,0.6,10.2,2.1c2.6,1.2,4.8,3.2,6.3,5.7
		c1.4,2.5,2.1,5.3,2.1,8.1c0,3.2-1,6.4-2.8,9c-2.1,2.8-5,4.7-8.4,5.6l11.7,20L26.1,93.9z M12.7,66.1h7.6c1.8,0.1,3.7-0.5,5.1-1.7
		c1.2-1.3,1.8-3,1.7-4.7c0.1-1.7-0.5-3.3-1.7-4.5c-1.4-1.2-3.2-1.8-5.1-1.7h-7.6V66.1z"/>
	<path class="st1" d="M58.2,91.1c-3.9-2.2-7.2-5.4-9.4-9.3c-2.4-4.1-3.6-8.7-3.5-13.4c-0.1-4.7,1.1-9.3,3.5-13.3
		c2.3-3.9,5.5-7,9.4-9.2c8.2-4.4,18-4.4,26.1,0c3.9,2.2,7.1,5.3,9.4,9.2c2.3,4.1,3.5,8.7,3.4,13.3c0.1,4.7-1.1,9.3-3.4,13.4
		c-2.2,3.9-5.5,7.1-9.4,9.3C76.1,95.5,66.3,95.5,58.2,91.1z M80.9,79.1c2.4-2.7,3.6-6.2,3.6-10.7s-1.2-8-3.6-10.6
		c-2.5-2.7-6-4.2-9.7-4c-3.7-0.2-7.2,1.3-9.8,4c-2.4,2.7-3.6,6.2-3.6,10.7s1.2,8,3.6,10.7c2.5,2.7,6.1,4.2,9.8,4
		C74.9,83.3,78.4,81.8,80.9,79.1L80.9,79.1z"/>
	<path class="st1" d="M116.2,84.3h16.1v9.5h-28.4V43.3h12.3V84.3z"/>
	<path class="st1" d="M150.6,53.2v10.2h16.5v9.5h-16.5V84h18.6v9.9h-31V43.3h31v9.9H150.6z"/>
</g>
<g id="INITIATIVE">
	<path class="st1" d="M4.7,108.6v17.6H0.4v-17.6H4.7z"/>
	<path class="st1" d="M36.4,126.1h-4.3L25,115.3v10.8h-4.3v-17.6H25l7.2,10.9v-10.9h4.3V126.1z"/>
	<path class="st1" d="M56.7,108.6v17.6h-4.3v-17.6H56.7z"/>
	<path class="st1" d="M85.4,108.6v3.4h-4.7v14.1h-4.3V112h-4.7v-3.4L85.4,108.6z"/>
	<path class="st1" d="M104.8,108.6v17.6h-4.3v-17.6H104.8z"/>
	<path class="st1" d="M131.8,123h-6.6l-1,3.1h-4.5l6.3-17.5h5l6.4,17.6h-4.6L131.8,123z M130.6,119.7l-2.2-6.4l-2.2,6.4H130.6z"/>
	<path class="st1" d="M164.8,108.6v3.4h-4.6v14.1h-4.3V112h-4.6v-3.4L164.8,108.6z"/>
	<path class="st1" d="M184.2,108.6v17.6h-4.3v-17.6H184.2z"/>
	<path class="st1" d="M216.7,108.6l-6.2,17.6h-5.4l-6.2-17.6h4.6l4.4,13.3l4.4-13.3H216.7z"/>
	<path class="st1" d="M235.7,112v3.6h5.7v3.3h-5.7v3.8h6.5v3.4h-10.8v-17.5h10.8v3.4H235.7z"/>
</g>
</svg>
