<?xml version="1.0" encoding="utf-8"?>
<!-- Generator: Adobe Illustrator 22.1.0, SVG Export Plug-In . SVG Version: 6.00 Build 0)  -->
<svg xmlns="http://www.w3.org/2000/svg" viewBox="0 0 280 139">

<g id="ROLE">
	<path class="st0" d="M26.1,93.9L15.6,74.8h-3v19.1H0.4V43.3H21c3.5-0.1,7,0.6,10.2,2.1c2.6,1.2,4.8,3.2,6.3,5.7
		c1.4,2.5,2.1,5.3,2.1,8.1c0,3.2-1,6.4-2.8,9c-2.1,2.8-5,4.7-8.4,5.6l11.7,20L26.1,93.9z M12.7,66.1h7.6c1.8,0.1,3.7-0.5,5.1-1.7
		c1.2-1.3,1.8-3,1.7-4.7c0.1-1.7-0.5-3.3-1.7-4.5c-1.4-1.2-3.2-1.8-5.1-1.7h-7.6C12.7,53.5,12.7,66.1,12.7,66.1z"/>
	<path class="st0" d="M58.2,91.1c-3.9-2.2-7.2-5.4-9.4-9.3c-2.4-4.1-3.6-8.7-3.5-13.4c-0.1-4.7,1.1-9.3,3.5-13.3
		c2.3-3.9,5.5-7,9.4-9.2c8.2-4.4,18-4.4,26.1,0c3.9,2.2,7.1,5.3,9.4,9.2c2.3,4.1,3.5,8.7,3.4,13.3c0.1,4.7-1.1,9.3-3.4,13.4
		c-2.2,3.9-5.5,7.1-9.4,9.3C76.1,95.5,66.3,95.5,58.2,91.1z M80.9,79.1c2.4-2.7,3.6-6.2,3.6-10.7s-1.2-8-3.6-10.6
		c-2.5-2.7-6-4.2-9.7-4c-3.7-0.2-7.2,1.3-9.8,4c-2.4,2.7-3.6,6.2-3.6,10.7s1.2,8,3.6,10.7c2.5,2.7,6.1,4.2,9.8,4
		C74.9,83.3,78.4,81.8,80.9,79.1L80.9,79.1z"/>
	<path class="st0" d="M116.2,84.3h16.1v9.5h-28.4V43.3h12.3C116.2,43.3,116.2,84.3,116.2,84.3z"/>
	<path class="st0" d="M150.6,53.2v10.2h16.5v9.5h-16.5V84h18.6v9.9h-31V43.3h31v9.9C169.2,53.2,150.6,53.2,150.6,53.2z"/>
</g>
<g id="INITIATIVE">
	<path class="st0" d="M4.7,108.6v17.6H0.4v-17.6H4.7z"/>
	<path class="st0" d="M36.4,126.1h-4.3L25,115.3v10.8h-4.3v-17.6H25l7.2,10.9v-10.9h4.3L36.4,126.1L36.4,126.1z"/>
	<path class="st0" d="M56.7,108.6v17.6h-4.3v-17.6H56.7z"/>
	<path class="st0" d="M85.4,108.6v3.4h-4.7v14.1h-4.3V112h-4.7v-3.4H85.4z"/>
	<path class="st0" d="M104.8,108.6v17.6h-4.3v-17.6H104.8z"/>
	<path class="st0" d="M131.8,123h-6.6l-1,3.1h-4.5l6.3-17.5h5l6.4,17.6h-4.6L131.8,123z M130.6,119.7l-2.2-6.4l-2.2,6.4H130.6z"/>
	<path class="st0" d="M164.8,108.6v3.4h-4.6v14.1h-4.3V112h-4.6v-3.4H164.8z"/>
	<path class="st0" d="M184.2,108.6v17.6h-4.3v-17.6H184.2z"/>
	<path class="st0" d="M216.7,108.6l-6.2,17.6h-5.4l-6.2-17.6h4.6l4.4,13.3l4.4-13.3H216.7z"/>
	<path class="st0" d="M235.7,112v3.6h5.7v3.3h-5.7v3.8h6.5v3.4h-10.8v-17.5h10.8v3.4C242.2,112,235.7,112,235.7,112z"/>
</g>
</svg>
