<?xml version="1.0" encoding="utf-8"?>
<!-- Generator: Adobe Illustrator 22.1.0, SVG Export Plug-In . SVG Version: 6.00 Build 0)  -->
<svg xmlns="http://www.w3.org/2000/svg" viewBox="0 0 280 139">
<path d="M154.6,57.2v2.2h1.1l0.7-2.2H154.6z M154.6,57.2v2.2h1.1l0.7-2.2H154.6z M159.6,97.8h-9.8l7.6,6.7
	h7.4c2.2,0,4,1.8,4,4v3.4c0,0.7-0.2,1.4-0.6,2.1l7.7,6.8v-8.7L159.6,97.8z M154.6,57.2v2.2h1.1l0.7-2.2H154.6z M278.6,48.4
	L278.6,48.4L224.9,1.6c-0.8-0.7-1.9-1-3-0.7l-57.3,15.7c-1,0.3-1.9,1.1-2.2,2.1l-6.9,20.6h6.8l3.2-9.6l3.2,9.6l4.4,13.2l7.4,22
	L159.1,80h10.1c1.9,0,3.5,1.3,3.9,3.1l9.2-2.3l5.4,25.9l0.5,2.4l3.6,17.1l0,0l-3.6-3.1v3.1c0,1.5-0.9,2.9-2.2,3.6l8.8,7.8
	c0.6,0.5,1.4,0.8,2.1,0.8c0.3,0,0.7,0,1-0.1l30.5-9.4c-0.6-0.7-0.9-1.6-0.9-2.6v-3.9l-10.9,3.4l0,0l10.9-7.4v-7.9l-9.3,6.4
	l-3.9,10.9c-0.6,1.6-2.1,2.7-3.8,2.7h-5.4c-1.5,0-2.9-0.9-3.6-2.2l-2.4,1.7L189,81.8l57.7,15.7l-11,7.5h6.5c1.2,0,2.2,0.5,3,1.4
	l5.6-3.8l-0.6,13l-4.8,1.5v2.2c0,0.4-0.1,0.9-0.2,1.3c0.6,0.7,1,1.6,0.9,2.6v0.5l8.2-2.5c1-0.3,1.8-1,2.1-2l23-66.8
	C279.9,50.6,279.5,49.3,278.6,48.4L278.6,48.4z M221.3,8l8.6,13L185,17.8L221.3,8z M186.1,70.6l-15.9-47.3l58.6,4.1L186.1,70.6z
	M190.8,75.1L234.5,31l15.4,60.1L190.8,75.1z M255.3,86.4L241.4,32l30.8,20L255.3,86.4z M154.6,59.4h1.1l0.7-2.2h-1.8V59.4z
	M154.6,57.2v2.2h1.1l0.7-2.2H154.6z M154.6,57.2v2.2h1.1l0.7-2.2H154.6z"/>
</svg>
