<svg id="Calque_1" data-name="Calque 1" xmlns="http://www.w3.org/2000/svg" viewBox="0 0 280 139"><defs><style>.cls-1{fill:#ff8433;}</style></defs><title>Plan de travail 1 copie 4</title><path id="BLURRED_DICE" data-name="BLURRED DICE" class="cls-1" d="M154.57,57.17V59.4h1.1l.74-2.23Zm0,0V59.4h1.1l.74-2.23Zm5.07,40.68H149.8l7.65,6.74h7.37a4,4,0,0,1,4,4V112a3.87,3.87,0,0,1-.59,2.07l7.69,6.77v-8.66Zm-5.07-40.68V59.4h1.1l.74-2.23Zm124-8.78h0L224.86,1.56a3.24,3.24,0,0,0-3-.68L164.6,16.61a3.24,3.24,0,0,0-2.22,2.11l-6.86,20.59h6.84l3.2-9.61,3.22,9.61,4.43,13.19,7.39,22L159.06,80h10.15a4,4,0,0,1,3.9,3.14l9.2-2.33,5.39,25.86.5,2.39,3.56,17.08h0L188.2,123v3.14a4,4,0,0,1-2.21,3.58l8.8,7.75a3.25,3.25,0,0,0,2.15.81,3.2,3.2,0,0,0,1-.15l30.49-9.41a4,4,0,0,1-.94-2.58v-3.93l-10.92,3.37h0l10.91-7.45v-7.88l-9.33,6.38-3.85,10.86a4,4,0,0,1-3.77,2.66h-5.35a4,4,0,0,1-3.58-2.22l-2.45,1.68L189.07,81.4l57.66,15.67-11,7.52h6.48a4,4,0,0,1,3,1.39l5.63-3.85-.57,13-4.84,1.5v2.21a4,4,0,0,1-.2,1.26,4,4,0,0,1,.95,2.6v.5l8.2-2.53a3.27,3.27,0,0,0,2.11-2L279.45,51.9A3.27,3.27,0,0,0,278.52,48.39ZM221.3,8l8.56,13L185,17.84ZM186.15,70.63l-15.87-47.3,58.61,4.09Zm4.69,4.51L234.46,31l15.39,60.14Zm64.5,11.29L241.4,32,272.2,52Zm-100.77-27h1.1l.74-2.23h-1.84Zm0-2.23V59.4h1.1l.74-2.23Zm0,0V59.4h1.1l.74-2.23Z"/></svg>