<?xml version="1.0" encoding="utf-8"?>
<!-- Generator: Adobe Illustrator 22.1.0, SVG Export Plug-In . SVG Version: 6.00 Build 0)  -->
<svg version="1.1" id="user3" xmlns="http://www.w3.org/2000/svg" xmlns:xlink="http://www.w3.org/1999/xlink" x="0px" y="0px"
	 viewBox="0 0 243.8 233.5" style="enable-background:new 0 0 243.8 233.5;" xml:space="preserve">
<style type="text/css">
	.st0{fill:#FF8433;}
	.st1{fill:#FFF8F3;}
</style>
<title>user</title>
<path class="st0" d="M233.2,158.4l-0.3-0.3l-38.5-33.6c-0.6-0.6-1.4-0.8-2.2-0.6l-41.6,11.3c-0.8,0.2-1.4,0.8-1.6,1.5l-16.3,49
	c0,0.1,0,0.2-0.1,0.2v1c0,0.2,0,0.3,0.1,0.4c0.1,0.2,0.2,0.4,0.3,0.6c0,0.2,0.2,0.3,0.3,0.4l39.2,34.6c0.5,0.3,1,0.5,1.5,0.6
	c0.3,0,0.6,0,0.7-0.1l41.1-12.7c0.8-0.2,1.3-0.8,1.6-1.5l16.6-48.3C234.2,160,234,159,233.2,158.4z M218,169.9l-2.9-11.1l6.3,4.1
	L218,169.9z M151.3,162.3l3.7,11.1l-8.1,2L151.3,162.3z M180.3,174.9l17.9-18.3l6.4,24.9L180.3,174.9z M184.7,147.8l-16.2,16.4
	l-5.9-17.9L184.7,147.8z M159.2,188.6l2.3,10.9l-10.1-8.9L159.2,188.6z M197.1,195.8l-17.7,12.1l-3.7-17.9L197.1,195.8z"/>
<path class="st1" d="M97.7,17.6c19.2,0,34.7,15.6,34.7,34.7S116.8,87,97.7,87C78.5,87,63,71.4,63,52.3C63,33.1,78.6,17.6,97.7,17.6
	 M97.7,0C68.9,0,45.5,23.4,45.5,52.3s23.4,52.3,52.3,52.3s52.3-23.4,52.3-52.3l0,0C150,23.4,126.6,0,97.7,0z"/>
<path class="st1" d="M97.7,206c-26.1,0-51.9-6.6-74.7-19.4c-4.1-2.5-5.8-7.6-4-12.1c3.7-9,9.6-16.8,17.2-22.8
	c10-7.8,22.2-12,34.9-12.1h53.3c5.6,0,11.1,0.8,16.4,2.6l2.5-7.4c0.8-2.6,3-4.6,5.6-5.3l4.9-1.4c-9.3-4-19.3-6.1-29.4-6.1H71.1
	c-16.6,0-32.7,5.6-45.8,15.8c-11.1,8.7-19.4,20.4-24,33.7c-3.8,11,1.2,23.4,11.4,29.3c25.9,14.9,55.2,22.7,85,22.6
	c19.1,0,38-3.1,56-9.4l-15.6-13.6C125,204.2,111.4,206,97.7,206z"/>
</svg>
