<?xml version="1.0" encoding="utf-8"?>
<!-- Generator: Adobe Illustrator 22.1.0, SVG Export Plug-In . SVG Version: 6.00 Build 0)  -->
<svg version="1.1" id="user3" xmlns="http://www.w3.org/2000/svg" xmlns:xlink="http://www.w3.org/1999/xlink" x="0px" y="0px"
	 viewBox="0 0 243.8 233.5" style="enable-background:new 0 0 243.8 233.5;" xml:space="preserve">
<style type="text/css">
	.st0{fill:#FF8433;}
</style>
<path class="st0" d="M233.2,158.4l-0.3-0.3l-38.5-33.6c-0.6-0.6-1.4-0.8-2.2-0.6l-41.6,11.3c-0.8,0.2-1.4,0.8-1.6,1.5l-16.3,49
	c0,0.1,0,0.2-0.1,0.2v1c0,0.2,0,0.3,0.1,0.4c0.1,0.2,0.2,0.4,0.3,0.6c0,0.2,0.2,0.3,0.3,0.4l39.2,34.6c0.5,0.3,1,0.5,1.5,0.6
	c0.3,0,0.6,0,0.7-0.1l41.1-12.7c0.8-0.2,1.3-0.8,1.6-1.5l16.6-48.3C234.2,160,234,159,233.2,158.4z M218,169.9l-2.9-11.1l6.3,4.1
	L218,169.9z M151.3,162.3l3.7,11.1l-8.1,2L151.3,162.3z M180.3,174.9l17.9-18.3l6.4,24.9L180.3,174.9z M184.7,147.8l-16.2,16.4
	l-5.9-17.9L184.7,147.8z M159.2,188.6l2.3,10.9l-10.1-8.9L159.2,188.6z M197.1,195.8l-17.7,12.1l-3.7-17.9L197.1,195.8z"/>
</svg>
